# xmcd CD database file
#
# Track frame offsets:
#	182
#	14882
#	30247
#	40192
#	53177
#	67252
#	78892
#	91457
#	104627
#	118000
#	129882
#	143907
#	159287
#	170962
#	184865
#	198150
#	213482
#	224645
#	236792
#	250375
#	266555
#	279635
#	292617
#	305247
#	317567
#	330887
#	340855
#
# Disc length: 4705 seconds
#
# Revision: 2
# Processed by: cddbd v1.5.1PL0 Copyright (c) Steve Scherf et al.
# Submitted via: Feurio! 1.66 - http://www.feurio.com
#
DISCID=9a125f1b
DTITLE=Kilima Hawaiians - Es hängt ein Pferdehalfter an der Wand
DYEAR=1900
DGENRE=country
TTITLE0=Eine alte Weise 
TTITLE1=Es hängt ein Pferdehalfter an der Wand
TTITLE2=Wilde Jagd und heißes Blut
TTITLE3=Cowboy's Traum
TTITLE4=Cowboy's Sehnsucht
TTITLE5=Hol' den Rappen, Old Jim 
TTITLE6=Cowboy's Heimweh 
TTITLE7=Ich hol' mein Pony aus dem Stall 
TTITLE8=Melodie der Prärie 
TTITLE9=Cowboy-Pfeif-Song 
TTITLE10=Frühling in Texas 
TTITLE11=Ein Pferd kehrt Heim 
TTITLE12=Ich möcht so gerne Cowboy sein 
TTITLE13=Nur ein Lied seiner Gitarre 
TTITLE14=Verlassen in der Prärie 
TTITLE15=Der letzte Mohikaner 
TTITLE16=Wenn die Lichter am Broadway erglühen
TTITLE17=Ilona 
TTITLE18=Banjo Bill 
TTITLE19=Cowboy's Wiegenlied 
TTITLE20=Cowboy Romantik
TTITLE21=Texas Polka
TTITLE22=Lagerfeuer 
TTITLE23=Si,si,si Sinorita 
TTITLE24=Mexikanische Nächte 
TTITLE25=Oh, Susanna (englisch)
TTITLE26=Rijdt, mijn trouwe ponny (hol.) 
EXTD=
EXTT0=1953
EXTT1=1952
EXTT2=1950
EXTT3=1950
EXTT4=1955
EXTT5=1952
EXTT6=1952
EXTT7=1956
EXTT8=1953
EXTT9=1953
EXTT10=1954
EXTT11=1954
EXTT12=1954
EXTT13=1953
EXTT14=1953
EXTT15=1956
EXTT16=1955
EXTT17=1953
EXTT18=1956
EXTT19=1953
EXTT20=1953
EXTT21=1952
EXTT22=1951
EXTT23=1951
EXTT24=1955
EXTT25=1994
EXTT26=1949
PLAYORDER=
